<svg width="14" height="14" viewBox="0 0 14 14" fill="none" xmlns="http://www.w3.org/2000/svg">
<path fill-rule="evenodd" clip-rule="evenodd" d="M2.16797 6.156C2.16797 3.957 3.95697 2.168 6.15597 2.168C8.35497 2.168 10.145 3.957 10.145 6.156C10.145 8.355 8.35497 10.144 6.15597 10.144C3.95697 10.144 2.16797 8.355 2.16797 6.156ZM13.539 12.125L11.033 9.619C11.73 8.639 12.145 7.446 12.145 6.156C12.145 2.854 9.45797 0.167999 6.15597 0.167999C2.85497 0.167999 0.167969 2.854 0.167969 6.156C0.167969 9.458 2.85497 12.144 6.15597 12.144C7.44597 12.144 8.63997 11.73 9.61897 11.033L12.125 13.539C12.32 13.734 12.576 13.832 12.832 13.832C13.088 13.832 13.344 13.734 13.539 13.539C13.93 13.148 13.93 12.515 13.539 12.125Z" fill="black"/>
<mask id="mask0" mask-type="alpha" maskUnits="userSpaceOnUse" x="0" y="0" width="14" height="14">
<path fill-rule="evenodd" clip-rule="evenodd" d="M2.16797 6.156C2.16797 3.957 3.95697 2.168 6.15597 2.168C8.35497 2.168 10.145 3.957 10.145 6.156C10.145 8.355 8.35497 10.144 6.15597 10.144C3.95697 10.144 2.16797 8.355 2.16797 6.156ZM13.539 12.125L11.033 9.619C11.73 8.639 12.145 7.446 12.145 6.156C12.145 2.854 9.45797 0.167999 6.15597 0.167999C2.85497 0.167999 0.167969 2.854 0.167969 6.156C0.167969 9.458 2.85497 12.144 6.15597 12.144C7.44597 12.144 8.63997 11.73 9.61897 11.033L12.125 13.539C12.32 13.734 12.576 13.832 12.832 13.832C13.088 13.832 13.344 13.734 13.539 13.539C13.93 13.148 13.93 12.515 13.539 12.125Z" fill="white"/>
</mask>
<g mask="url(#mask0)">
<rect x="-43" y="-39.3625" width="96" height="96" fill="#CACDD4"/>
</g>
</svg>
